<?xml version="1.0" encoding="UTF-8" standalone="no"?>
<svg viewBox="0 0 32 32" id="Camada_1" version="1.1" xml:space="preserve" fill-rule="evenodd" width="32" height="32"
	xmlns="http://www.w3.org/2000/svg" xmlns:svg="http://www.w3.org/2000/svg">
	<defs id="defs707" />



	<path id="path702" style="display:inline;fill:#fff;stroke-width:1.14"
		d="M 4.6,0.04 C 2.092005,0.04 0.04,2.092005 0.04,4.6 v 22.8 c 0,2.507995 2.052005,4.56 4.56,4.56 h 22.8 c 2.507995,0 4.56,-2.052005 4.56,-4.56 V 4.6 c 0,-2.507995 -2.052005,-4.56 -4.56,-4.56 z m 6.49711,4.56 c 1.481995,0 3.307785,1.0260036 5.24578,2.85 1.823998,-1.8239964 3.648005,-2.85 5.13,-2.85 0.456,0 0.797556,0.1148911 1.253556,0.3428906 1.481995,0.7979985 1.824444,3.418225 1.026444,6.7242194 C 26.944884,12.693107 29.11,14.176005 29.11,16 c 0,1.709998 -2.166897,3.306893 -5.47289,4.33289 0.797997,3.305994 0.457778,5.928003 -1.02422,6.84 -0.341997,0.228 -0.799783,0.340664 -1.25578,0.340664 -1.367998,0 -3.306005,-1.026002 -5.13,-2.85 -1.823998,1.823998 -3.648005,2.85 -5.13,2.85 -0.456,0 -0.911556,-0.112664 -1.2535557,-0.340664 C 8.2475584,26.260893 8.0191109,23.638884 8.8171094,20.33289 5.6251157,19.306893 3.46,17.823995 3.46,16 3.46,14.176005 5.6251157,12.693107 8.8171094,11.66711 8.0191108,8.3611157 8.3615581,5.7408891 9.8435543,4.9428906 10.185554,4.7148911 10.64111,4.6 11.09711,4.6 Z m 0,1.2535547 c -0.228,0 -0.456,-4.452e-4 -0.57,0.1135547 C 9.7291097,6.4231085 9.502,7.905559 9.73,9.8435543 9.73,10.299554 9.8448903,10.870001 10.07289,11.44 11.098888,11.212 12.237112,10.984 13.37711,10.87 14.061107,9.9580023 14.746002,9.1608892 15.43,8.3628906 13.720002,6.652894 12.123107,5.8535547 11.09711,5.8535547 Z m 10.37578,0 c -1.025997,0 -2.623338,0.7975578 -4.219336,2.3935547 0.684,0.6839987 1.368892,1.5973363 2.052892,2.5093366 1.139997,0.114 2.280447,0.342 3.306444,0.57 0.114,-0.456 0.11311,-1.026892 0.22711,-1.4828917 0.228,-1.9379953 -0.11311,-3.4204458 -0.79711,-3.8764449 -0.114,-0.1139999 -0.342,-0.1135547 -0.57,-0.1135547 z M 16.22711,9.16 C 15.77111,9.616 15.316,10.186446 14.86,10.756446 h 1.36711 1.369336 C 17.140446,10.186446 16.683107,9.616 16.22711,9.16 Z m 0.229336,2.736446 c -0.798,0 -1.596003,0.113554 -2.28,0.113554 -0.456,0.569999 -0.911556,1.25311 -1.253556,1.93711 L 11.896446,16 12.92289,18.05289 c 0.342,0.684 0.684003,1.36711 1.14,1.93711 0.684,0.114 1.482003,0.113554 2.28,0.113554 0.798,0 1.482003,-0.113554 2.28,-0.113554 0.342,-0.683998 0.798003,-1.25311 1.14,-1.93711 0.342,-0.683997 0.797556,-1.368892 1.253556,-2.05289 L 19.99,13.94711 c -0.456,-0.684 -0.797557,-1.367111 -1.253554,-1.93711 -0.798,-0.114 -1.482003,-0.113554 -2.28,-0.113554 z m -3.99,0.340664 -2.052892,0.34289 c 0.228,0.569999 0.455556,1.25311 0.683556,1.93711 0.114,-0.342 0.343783,-0.798003 0.68578,-1.14 0.228,-0.342 0.455556,-0.798003 0.683556,-1.14 z m 7.637108,0 c 0.228,0.341997 0.455556,0.684 0.683556,1.14 0.228,0.341997 0.45778,0.798 0.68578,1.14 0.228,-0.57 0.455556,-1.253112 0.683556,-1.93711 z M 9.16,12.80711 c -0.5699989,0.114 -1.0268915,0.228447 -1.4828906,0.456444 -1.8239964,0.798 -2.9635547,1.824892 -2.9635547,2.622892 0,0.911997 1.1395583,1.822664 2.9635547,2.620664 C 8.1331085,18.73511 8.5900011,18.963554 9.16,18.963554 9.388,17.937557 9.844,16.912443 10.3,15.886446 9.844,14.860448 9.502,13.833107 9.16,12.80711 Z m 14.25,0.11578 C 23.182,13.834888 22.726,14.974002 22.27,16 c 0.456,1.025998 0.798,2.051112 1.14,3.07711 0.57,-0.228 1.026893,-0.342 1.48289,-0.57 1.823998,-0.684 2.963556,-1.709112 2.963556,-2.50711 0,-0.911998 -1.139558,-1.824893 -2.963556,-2.62289 C 24.436893,13.26311 23.98,13.03689 23.41,12.92289 Z m -7.06711,0.683556 c 1.367999,0 2.393556,1.025555 2.393556,2.393554 0,1.367999 -1.025557,2.393554 -2.393556,2.393554 -1.367999,0 -2.39578,-1.025555 -2.39578,-2.393554 0,-1.367999 1.027781,-2.393554 2.39578,-2.393554 z M 10.983554,17.48289 C 10.755557,18.16689 10.528,18.736002 10.3,19.42 l 2.05289,0.34289 c -0.228,-0.341997 -0.45778,-0.684 -0.68578,-1.14 -0.228,-0.341997 -0.455556,-0.798 -0.683556,-1.14 z m 10.489336,0 c -0.228,0.342 -0.45778,0.798003 -0.68578,1.14 -0.228,0.456 -0.455556,0.798003 -0.683556,1.14 L 22.156446,19.42 c -0.228,-0.683998 -0.455556,-1.25311 -0.683556,-1.93711 z m 1.02422,2.963556 c -0.911998,0.341997 -2.050667,0.456 -3.190664,0.57 -0.684,1.025997 -1.482448,1.822664 -2.166446,2.620664 1.709998,1.709995 3.306893,2.509336 4.33289,2.509336 0.228,0 0.456,4.44e-4 0.57,-0.113556 0.798,-0.455997 1.02511,-1.938449 0.79711,-3.876444 -0.114,-0.456 -0.22889,-1.026003 -0.34289,-1.71 z M 10.07289,20.56 C 9.8448903,21.129999 9.844,21.700446 9.73,22.156446 c -0.228,1.937995 0.1131097,3.420447 0.79711,3.876444 0.114,0.114 0.342,0.11311 0.57,0.22711 1.025997,0 2.622892,-0.911112 4.33289,-2.50711 C 14.632002,22.954893 13.947554,22.041998 13.263554,21.13 12.123557,21.016 11.098888,20.788 10.07289,20.56 Z M 14.86,21.243554 c 0.456,0.57 0.91111,1.140446 1.36711,1.596446 0.455997,-0.456 0.913336,-1.026446 1.369336,-1.596446 H 16.22711 Z" />

</svg>